<svg version="1.1" xmlns="http://www.w3.org/2000/svg" viewBox="0 0 382.8969046351655 379.71133474576254" width="1148.6907139054965" height="1139.1340042372876">
  <!-- svg-source:excalidraw -->
  
  <defs>
    <style>
      @font-face {
        font-family: "Virgil";
        src: url("https://excalidraw.com/Virgil.woff2");
      }
      @font-face {
        font-family: "Cascadia";
        src: url("https://excalidraw.com/Cascadia.woff2");
      }
    </style>
  </defs>
  <rect x="0" y="0" width="382.8969046351655" height="379.71133474576254" fill="#ffffff"></rect><g stroke-linecap="round"><g transform="translate(11.99574003616965 306.5669138418075) rotate(0 144.21460292337778 0.37406962390522835)"><path d="M-0.01 -0.99 C48 -1.09, 239.71 0.02, 287.66 0.13 M-1.48 1.11 C46.95 1.16, 241.31 1.79, 289.91 1.74" stroke="#000000" stroke-width="1" fill="none"></path></g></g><g stroke-linecap="round"><g transform="translate(303.66240670283634 306.5669138418075) rotate(0 0.2966015824563897 -86.66053425073625)"><path d="M-0.49 -0.4 C-0.59 -29.33, -1.02 -144.41, -1.03 -172.92 M1.46 -1.66 C1.75 -30.52, 1.66 -143.27, 1.15 -171.93" stroke="#000000" stroke-width="1" fill="none"></path></g></g><g stroke-linecap="round"><g transform="translate(10.954073369503021 305.52524717514075) rotate(0 0.16481303551452697 -84.58268963098527)"><path d="M1 0.06 C1.01 -28.19, -0.75 -140.98, -0.95 -169.23 M0.07 -0.95 C0.54 -29.06, 1.45 -140.03, 1.26 -167.94" stroke="#000000" stroke-width="1" fill="none"></path></g></g><g stroke-linecap="round"><g transform="translate(11.99574003616965 136.77524717514078) rotate(0 146.50346163418612 0.3001156196650072)"><path d="M0.75 0.3 C49.75 0.12, 244.5 -0.29, 293.33 -0.23 M-0.32 -0.59 C48.55 -0.66, 243.29 1.31, 292.15 1.19" stroke="#000000" stroke-width="1" fill="none"></path></g></g><g stroke-linecap="round"><g transform="translate(11.99574003616965 131.56691384180746) rotate(0 31.765211859114174 -32.06001536716241)"><path d="M-0.21 -0.92 C10.7 -11.83, 54.4 -54.83, 65.3 -65.33 M-1.77 1.21 C9.04 -9.54, 53.64 -52.81, 64.73 -63.96" stroke="#000000" stroke-width="1" fill="none"></path></g></g><g stroke-linecap="round"><g transform="translate(305.7457400361697 130.52524717514078) rotate(0 29.763616265853273 -30.493717801570895)"><path d="M-1.14 0.3 C9.08 -9.88, 50.53 -50.93, 60.67 -61.29 M0.46 -0.59 C10.59 -10.57, 49.51 -49.83, 59.79 -59.9" stroke="#000000" stroke-width="1" fill="none"></path></g></g><g stroke-linecap="round"><g transform="translate(77.6207400361697 66.98358050847412) rotate(0 142.69081157989027 -0.4048999428749056)"><path d="M0.22 0.19 C48.15 0.03, 238.98 -1.01, 286.51 -1 M-1.13 -0.76 C46.75 -0.8, 237.45 -0.4, 285.58 0.02" stroke="#000000" stroke-width="1" fill="none"></path></g></g><g stroke-linecap="round"><g transform="translate(368.2457400361697 68.02524717514078) rotate(0 0.5202577919419014 84.27977700806223)"><path d="M-0.77 0.72 C-0.71 28.79, -0.78 139.64, -0.66 167.58 M1.03 0.06 C1.57 28.3, 2.02 140.26, 1.71 168.5" stroke="#000000" stroke-width="1" fill="none"></path></g></g><g stroke-linecap="round"><g transform="translate(371.3707400361697 237.81691384180746) rotate(0 -29.660338371610294 29.307698731380498)"><path d="M-0.44 -1.05 C-10.51 8.55, -50.08 48.33, -59.72 58.43 M1.53 1.01 C-8.79 10.69, -50.85 50.26, -60.85 59.67" stroke="#000000" stroke-width="1" fill="none"></path></g></g><g stroke-linecap="round"><g transform="translate(15.12074003616965 182.60858050847415) rotate(0 142.34608913562414 0.4174964019416052)"><path d="M-0.4 -0.69 C46.68 -0.86, 235.56 -0.26, 282.71 -0.14 M1.59 1.56 C49.05 1.51, 237.87 1.36, 285.09 1.32" stroke="#000000" stroke-width="1" fill="none"></path></g></g><g stroke-linecap="round"><g transform="translate(122.41240670283634 188.85858050847415) rotate(0 0.2542261799695211 61.86680865944206)"><path d="M-1.1 1.08 C-1.04 21.65, -0.92 102.68, -0.75 123.14 M0.52 0.6 C1.06 20.81, 1.8 100.9, 1.57 121.13" stroke="#000000" stroke-width="1" fill="none"></path></g></g><g stroke-linecap="round" transform="translate(166.16240670283634 153.44191384180746) rotate(0 9.375 9.375)"><path d="M6.04 0.35 C8.02 -0.44, 10.88 -0.5, 12.68 0.15 C14.48 0.81, 15.95 2.53, 16.83 4.29 C17.72 6.05, 18.07 8.64, 17.98 10.73 C17.89 12.83, 17.63 15.34, 16.29 16.84 C14.94 18.33, 12.06 19.76, 9.91 19.7 C7.76 19.63, 5.15 17.75, 3.4 16.42 C1.65 15.09, -0.07 13.71, -0.57 11.71 C-1.07 9.71, -0.56 6.17, 0.42 4.43 C1.4 2.69, 4.25 2.08, 5.31 1.28 C6.36 0.48, 6.62 -0.43, 6.76 -0.35 M13.99 1.05 C15.82 1.67, 17.84 3.24, 18.85 4.71 C19.85 6.19, 20.67 7.8, 20.02 9.91 C19.38 12.03, 16.91 16.09, 14.99 17.4 C13.08 18.7, 10.28 18.13, 8.53 17.74 C6.79 17.35, 5.92 16.18, 4.52 15.05 C3.12 13.92, 0.72 12.53, 0.13 10.95 C-0.46 9.37, -0.17 7.26, 0.97 5.57 C2.11 3.88, 4.78 1.66, 6.94 0.82 C9.11 -0.02, 13.18 0.5, 13.97 0.54 C14.75 0.59, 11.71 1.14, 11.65 1.08" stroke="#000000" stroke-width="1" fill="none"></path></g><g stroke-linecap="round" transform="translate(213.03740670283634 155.52524717514072) rotate(0 8.854166666666629 8.854166666666629)"><path d="M11.16 -0.68 C12.77 -0.43, 14.28 2.09, 15.28 3.54 C16.29 4.98, 16.99 6.34, 17.2 7.99 C17.42 9.64, 17.69 11.84, 16.59 13.43 C15.48 15.03, 12.62 16.93, 10.58 17.56 C8.55 18.2, 5.96 18.14, 4.37 17.25 C2.79 16.37, 1.57 14.13, 1.06 12.25 C0.56 10.37, 0.91 7.76, 1.34 5.97 C1.77 4.18, 1.72 2.54, 3.63 1.49 C5.54 0.45, 11.21 -0.29, 12.8 -0.29 C14.4 -0.29, 13.25 1.24, 13.21 1.48 M11.72 -0.15 C13.08 0.63, 15.8 4.87, 16.63 7.04 C17.47 9.21, 17.01 11.34, 16.73 12.86 C16.44 14.39, 16.55 15.21, 14.92 16.21 C13.29 17.22, 8.92 18.9, 6.93 18.87 C4.93 18.85, 3.96 17.5, 2.93 16.07 C1.91 14.63, 1.06 12.44, 0.79 10.25 C0.53 8.06, 0.41 4.48, 1.36 2.95 C2.32 1.42, 4.73 1.21, 6.52 1.06 C8.3 0.91, 11.1 1.82, 12.06 2.04 C13.01 2.27, 12.17 2.34, 12.25 2.4" stroke="#000000" stroke-width="1" fill="none"></path></g><g stroke-linecap="round" transform="translate(261.9957400361697 154.4835805084741) rotate(0 9.895833333333314 9.895833333333314)"><path d="M15.43 1 C17.26 1.83, 17.89 4.83, 18.62 6.96 C19.35 9.09, 20.28 11.76, 19.8 13.77 C19.31 15.78, 17.66 18.07, 15.73 19.01 C13.8 19.96, 10.48 19.75, 8.22 19.44 C5.97 19.13, 3.7 18.57, 2.22 17.16 C0.74 15.75, -0.55 13.05, -0.66 10.97 C-0.77 8.88, 0.17 6.38, 1.57 4.65 C2.96 2.93, 5.39 1.08, 7.71 0.62 C10.02 0.16, 14.25 1.6, 15.47 1.88 C16.69 2.16, 15.22 2.08, 15.02 2.29 M14.55 0.43 C16.32 1.06, 17.14 4.12, 18.14 6.09 C19.14 8.06, 21.08 10.28, 20.57 12.26 C20.07 14.24, 17.15 16.96, 15.13 17.98 C13.11 19, 10.44 18.65, 8.45 18.37 C6.46 18.1, 4.43 17.83, 3.19 16.32 C1.95 14.81, 1.07 11.15, 1.01 9.31 C0.95 7.47, 1.88 6.54, 2.82 5.27 C3.75 4, 4.51 2.45, 6.64 1.7 C8.77 0.95, 14.22 0.69, 15.57 0.77 C16.93 0.86, 15.1 1.85, 14.78 2.23" stroke="#000000" stroke-width="1" fill="none"></path></g><g stroke-linecap="round" transform="translate(67.20407336950296 81.56691384180746) rotate(0 49.479166666666686 15.625)"><path d="M68.64 1.05 C77.53 2.1, 86.57 5.31, 91.51 8.19 C96.46 11.07, 99.57 15.15, 98.3 18.31 C97.03 21.48, 90.72 25.16, 83.88 27.18 C77.04 29.21, 66.85 29.96, 57.26 30.44 C47.66 30.92, 35.17 31.45, 26.28 30.08 C17.39 28.7, 7.95 25.26, 3.92 22.21 C-0.11 19.15, -0.45 14.74, 2.08 11.73 C4.6 8.72, 11.39 5.96, 19.08 4.15 C26.76 2.33, 39.24 1.23, 48.19 0.83 C57.15 0.43, 68.1 1.45, 72.82 1.76 C77.53 2.07, 76.68 2.47, 76.49 2.69 M49.86 -0.9 C59.19 -1.13, 70.3 0.3, 78.24 2.12 C86.18 3.93, 94.8 6.63, 97.51 9.98 C100.23 13.34, 98.23 18.88, 94.53 22.23 C90.84 25.58, 83.51 28.52, 75.34 30.09 C67.16 31.67, 55.18 32.41, 45.49 31.69 C35.81 30.97, 24.84 27.79, 17.23 25.79 C9.62 23.79, 1.82 22.48, -0.15 19.71 C-2.12 16.93, 0.94 12.05, 5.4 9.13 C9.86 6.2, 19.28 3.53, 26.61 2.16 C33.93 0.79, 45.49 1.05, 49.35 0.9 C53.21 0.75, 49.91 1.37, 49.75 1.26" stroke="#000000" stroke-width="1" fill="none"></path></g><g stroke-linecap="round"><g transform="translate(260.6150903186555 311.77524717514075) rotate(0 0.7729692512895667 24.515061724185955)"><path d="M-0.28 -1.2 C0.05 7.33, 1.03 41.74, 0.91 50.23 M1.78 0.79 C2.12 9.02, 0.51 39.87, 0.43 48.22" stroke="#000000" stroke-width="1" fill="none"></path></g></g><g stroke-linecap="round"><g transform="translate(285.95407336950296 310.7335805084741) rotate(0 -0.7214617910913717 27.774647621933042)"><path d="M0.05 0.66 C-0.09 9.76, 0.05 45.2, -0.03 53.97 M-1.39 -0.04 C-1.76 9.33, -1 46.52, -1.02 55.59" stroke="#000000" stroke-width="1" fill="none"></path></g></g><g stroke-linecap="round"><g transform="translate(30.74574003616965 311.77524717514075) rotate(0 0.6449036093568168 24.491293930832)"><path d="M0.19 0.79 C0.15 8.6, -0.1 39.95, 0.26 47.83 M-1.18 0.17 C-0.88 8.61, 1.9 40.68, 2.47 48.82" stroke="#000000" stroke-width="1" fill="none"></path></g></g><g stroke-linecap="round"><g transform="translate(53.662406702836336 310.7335805084741) rotate(0 0.5043713475974414 24.01543489884895)"><path d="M0.23 -0.57 C0.74 7.28, 2.03 39.35, 2.11 47.47 M-1.1 1.75 C-0.58 9.7, 1.56 40.64, 1.72 48.6" stroke="#000000" stroke-width="1" fill="none"></path></g></g><g stroke-linecap="round" transform="translate(29.728790883627312 354.6071680790956) rotate(0 14.062499999999972 4.6875)"><path d="M10.1 1.06 C12.7 0.82, 16.74 0.18, 19.35 0.57 C21.96 0.97, 24.4 2.4, 25.75 3.44 C27.11 4.47, 28.1 5.81, 27.48 6.79 C26.86 7.77, 24.37 8.97, 22.02 9.32 C19.66 9.66, 16.39 9.07, 13.36 8.88 C10.33 8.69, 6.22 8.68, 3.86 8.18 C1.49 7.67, -0.75 7.01, -0.84 5.87 C-0.93 4.73, 1.29 2.15, 3.32 1.34 C5.36 0.53, 9.97 1.13, 11.38 1.01 C12.79 0.89, 11.83 0.71, 11.78 0.64 M9.88 -0.16 C13.03 -0.45, 18.97 1.09, 21.77 1.48 C24.58 1.86, 25.78 1.31, 26.7 2.16 C27.62 3, 28.16 5.62, 27.28 6.56 C26.4 7.49, 23.81 7.12, 21.41 7.77 C19.01 8.42, 16.02 10.27, 12.9 10.47 C9.77 10.68, 4.78 10.09, 2.67 9.02 C0.55 7.95, 0.28 5.45, 0.2 4.07 C0.12 2.7, 0.35 1.35, 2.18 0.78 C4.01 0.21, 9.83 0.94, 11.18 0.65 C12.52 0.36, 10.46 -0.95, 10.26 -0.96" stroke="#000000" stroke-width="1" fill="none"></path></g><g stroke-linecap="round" transform="translate(258.0638897536841 360.33633474576254) rotate(0 14.0625 4.6875)"><path d="M11.38 -0.77 C14.03 -0.95, 17.74 -0.79, 20.53 -0.02 C23.33 0.74, 26.94 2.62, 28.17 3.83 C29.4 5.03, 29.23 6.56, 27.92 7.21 C26.6 7.87, 22.99 7.3, 20.27 7.75 C17.54 8.2, 14.33 9.78, 11.57 9.92 C8.81 10.06, 5.8 9.55, 3.72 8.61 C1.64 7.66, -0.91 5.44, -0.92 4.26 C-0.93 3.07, 1.46 2.3, 3.65 1.51 C5.83 0.71, 10.51 -0.25, 12.21 -0.51 C13.91 -0.78, 13.65 -0.38, 13.86 -0.1 M8.57 1.31 C11.19 0.51, 14.69 -1.29, 17.67 -1.03 C20.65 -0.78, 24.79 1.89, 26.44 2.84 C28.09 3.8, 28.11 3.89, 27.56 4.7 C27 5.52, 25.28 6.73, 23.1 7.73 C20.92 8.72, 17.34 10.79, 14.5 10.68 C11.66 10.56, 8.22 8.03, 6.05 7.05 C3.87 6.07, 2.4 5.36, 1.43 4.8 C0.46 4.23, -0.74 4.62, 0.25 3.65 C1.24 2.69, 5.71 -0.54, 7.39 -0.99 C9.06 -1.44, 9.87 0.81, 10.3 0.93" stroke="#000000" stroke-width="1" fill="none"></path></g><g stroke-linecap="round"><g transform="translate(336.5832759181383 277.45711792917484) rotate(0 -0.20632629248780177 11.446069059293364)"><path d="M0.36 -1.16 C0.58 3.04, 0.46 20.13, 0.5 24.05 M-0.91 0.85 C-0.74 4.81, -0.36 18.61, -0.19 22.33" stroke="#000000" stroke-width="1" fill="none"></path></g></g><g stroke-linecap="round"><g transform="translate(362.2247067206768 249.08279077905487) rotate(0 -0.1663645415881092 27.379718808343483)"><path d="M-1.16 0.5 C-0.83 9.61, 0.78 46.2, 0.82 55.05 M0.44 -0.29 C0.77 8.44, 0.1 44.1, 0.28 53.23" stroke="#000000" stroke-width="1" fill="none"></path></g></g><g stroke-linecap="round" transform="translate(333.99609314351454 299.2643213861338) rotate(0 14.228517920799163 4.742839306933064)"><path d="M17.24 0.71 C20.09 1.02, 22.91 1.21, 24.93 2.02 C26.96 2.82, 29.41 4.45, 29.39 5.52 C29.37 6.59, 27.03 7.86, 24.79 8.44 C22.55 9.02, 19 9.05, 15.95 9 C12.9 8.94, 9.16 8.5, 6.47 8.12 C3.78 7.75, 0.86 7.66, -0.18 6.74 C-1.21 5.82, -1.19 3.61, 0.28 2.61 C1.75 1.61, 5.25 1.16, 8.64 0.74 C12.02 0.32, 18.23 0, 20.61 0.11 C23 0.22, 23.12 1.21, 22.96 1.43 M7.22 -0.22 C9.79 -0.82, 14.65 -0.78, 17.59 -0.6 C20.54 -0.41, 23.29 -0.25, 24.89 0.89 C26.49 2.02, 27.16 5.19, 27.19 6.23 C27.22 7.26, 27.15 6.79, 25.06 7.09 C22.96 7.4, 17.76 7.95, 14.61 8.03 C11.46 8.11, 8.62 7.9, 6.16 7.59 C3.7 7.28, 0.87 6.71, -0.17 6.16 C-1.2 5.6, -1.63 5.2, -0.04 4.27 C1.54 3.34, 7.77 0.94, 9.32 0.56 C10.88 0.18, 9.45 1.98, 9.29 1.98" stroke="#000000" stroke-width="1" fill="none"></path></g><g stroke-linecap="round"><g transform="translate(86.57024568588719 72.5) rotate(0 -0.0018589582201116173 -29.80199493169785)"><path d="M-0.84 -0.31 C-0.96 -10.08, -0.22 -49.4, -0.25 -59.3 M0.91 -1.51 C0.64 -11.09, -0.45 -48.56, -0.92 -58.13" stroke="#000000" stroke-width="1" fill="none"></path></g></g><g stroke-linecap="round"><g transform="translate(106.88274568588719 73.28125) rotate(0 -0.47312777361833014 -29.638260330194612)"><path d="M-1 -1.14 C-1.13 -10.98, -0.8 -48.76, -0.44 -58.5 M0.67 0.88 C0.32 -9.34, -1.67 -50.3, -1.62 -60.16" stroke="#000000" stroke-width="1" fill="none"></path></g></g><g stroke-linecap="round" transform="translate(82.66399568588719 10) rotate(0 12.5 1.953125)"><path d="M14.32 0.2 C17.01 0.45, 20.45 1.4, 22.35 1.58 C24.24 1.76, 25.68 0.92, 25.67 1.29 C25.67 1.66, 23.93 3.34, 22.31 3.81 C20.7 4.28, 18.6 4.26, 15.97 4.12 C13.33 3.98, 8.93 3.31, 6.5 2.98 C4.07 2.64, 2.33 2.41, 1.4 2.1 C0.46 1.78, 0.17 1.4, 0.87 1.1 C1.57 0.8, 2.92 0.56, 5.6 0.32 C8.29 0.07, 14.42 -0.39, 16.98 -0.38 C19.54 -0.38, 20.86 0.13, 20.96 0.34 M10.33 -1.2 C13.26 -1.3, 18.72 -0.26, 20.88 0.42 C23.05 1.09, 22.76 2.45, 23.31 2.85 C23.85 3.25, 25.22 2.57, 24.16 2.83 C23.09 3.1, 19.22 4.43, 16.92 4.43 C14.62 4.42, 12.89 2.88, 10.37 2.82 C7.85 2.76, 3.42 4.1, 1.81 4.04 C0.19 3.99, 0.23 3.12, 0.68 2.49 C1.13 1.86, 2.65 0.78, 4.52 0.26 C6.4 -0.26, 10.93 -0.54, 11.94 -0.62 C12.95 -0.7, 10.66 -0.46, 10.58 -0.24" stroke="#000000" stroke-width="1" fill="none"></path></g><g stroke-linecap="round"><g transform="translate(94.38274568588719 20.9375) rotate(0 13.774732312974493 -3.4183725714683533)"><path d="M-0.42 0.92 C4.03 -0.19, 21.04 -6.3, 25.7 -7.76 M1.57 0.36 C6.48 -0.52, 23.67 -5.39, 27.97 -6.6" stroke="#000000" stroke-width="1" fill="none"></path></g></g><g stroke-linecap="round"><g transform="translate(96.72649568588719 28.75) rotate(0 12.56283710148648 -2.8552741446020065)"><path d="M0.78 -0.59 C5.16 -1.67, 21.39 -6.46, 25.39 -7.43 M-0.27 1.72 C4.06 0.81, 20.61 -5.36, 24.65 -6.51" stroke="#000000" stroke-width="1" fill="none"></path></g></g><g stroke-linecap="round" transform="translate(91.76262700288561 21.688839969371884) rotate(0 1.8376722817764062 4.8238897396630875)"><path d="M2.31 0.5 C2.84 1.07, 4.02 2.61, 4.3 3.7 C4.57 4.79, 4.32 6.2, 3.96 7.03 C3.6 7.86, 2.36 8.34, 2.12 8.7 C1.88 9.06, 2.77 9.17, 2.52 9.2 C2.28 9.22, 0.99 9.55, 0.65 8.85 C0.32 8.15, 0.39 6.02, 0.49 5 C0.6 3.97, 0.96 3.36, 1.26 2.7 C1.56 2.03, 2.11 1.18, 2.3 1.01 C2.49 0.85, 2.21 1.79, 2.39 1.71 C2.58 1.63, 3.25 0.72, 3.39 0.55 M1.85 -0.15 C1.92 -0.64, 1.87 -0.3, 2.37 0.44 C2.86 1.17, 4.41 3.31, 4.83 4.26 C5.24 5.21, 5.18 5.13, 4.85 6.13 C4.53 7.13, 3.24 9.86, 2.89 10.24 C2.53 10.62, 3.06 8.6, 2.71 8.41 C2.36 8.23, 1.33 9.49, 0.78 9.14 C0.24 8.78, -0.3 7.59, -0.56 6.26 C-0.82 4.93, -0.91 2.1, -0.8 1.14 C-0.69 0.17, -0.37 0.87, 0.12 0.47 C0.61 0.08, 1.84 -1.11, 2.16 -1.23" stroke="#000000" stroke-width="1" fill="none"></path></g><g stroke-linecap="round" transform="translate(116.26492409323777 13.113035987748617) rotate(0 3.598774885145474 4.8238897396630875)"><path d="M2.92 0.56 C3.61 0.12, 4.13 0.13, 4.75 0.3 C5.37 0.47, 6.4 0.8, 6.67 1.57 C6.94 2.35, 6.52 3.98, 6.35 4.96 C6.17 5.94, 6.07 6.59, 5.63 7.45 C5.19 8.32, 4.35 10.08, 3.71 10.16 C3.07 10.24, 2.46 8.52, 1.79 7.93 C1.12 7.33, -0.05 7.62, -0.3 6.61 C-0.56 5.61, -0.16 3.07, 0.27 1.9 C0.71 0.72, 1.92 -0.17, 2.32 -0.44 C2.71 -0.7, 2.77 -0.01, 2.66 0.32 M1.8 -1.26 C2.7 -1.65, 5.1 -0.8, 6.15 -0.05 C7.19 0.69, 7.93 2.21, 8.06 3.23 C8.19 4.24, 7.3 5.3, 6.92 6.03 C6.53 6.77, 6.27 7.25, 5.75 7.64 C5.23 8.03, 4.64 8.2, 3.81 8.39 C2.98 8.59, 1.28 9.33, 0.75 8.8 C0.22 8.27, 0.61 6.17, 0.63 5.21 C0.65 4.25, 0.55 3.97, 0.89 3.02 C1.23 2.08, 2.15 0.11, 2.65 -0.46 C3.15 -1.04, 3.75 -0.55, 3.89 -0.42" stroke="#000000" stroke-width="1" fill="none"></path></g><g stroke-linecap="round"><g transform="translate(17.39226662370521 245.46248322211116) rotate(0 47.67476823375293 -1.5485468581267412)"><path d="M0.84 -0.5 C16.9 -0.71, 79.59 -0.64, 95.53 -0.67 M-0.18 -1.81 C15.78 -2.44, 78.41 -2.42, 94.44 -2.6" stroke="#000000" stroke-width="1" fill="none"></path></g></g><g stroke-linecap="round"><g transform="translate(163.51491268840851 214.68508100096196) rotate(0 48.44038034740953 -0.3853347604437545)"><path d="M1.07 0.46 C17.15 0.67, 80.89 0.62, 96.71 0.51 M0.17 -0.34 C16.11 -0.43, 80.15 -1.57, 95.97 -1.35" stroke="#000000" stroke-width="1" fill="none"></path></g></g></svg>